<svg xmlns="http://www.w3.org/2000/svg" viewBox="0 0 265.7 42.28"><defs><style>.cls-1{fill:#fff;}</style></defs><g id="Ebene_2" data-name="Ebene 2"><g id="OBJECTS"><path class="cls-1" d="M59.68,3.82a1.72,1.72,0,0,1,.16-.31,2.22,2.22,0,0,1,.84.1l.47-.37.21-.16a2.83,2.83,0,0,0,.87.14,9.72,9.72,0,0,0,1.27-.45v0l0,.17c0,.19.34.23.68.09a9.06,9.06,0,0,1,2.11.13c.43,0,1.64-.43,1.89-.4s.91.28,1.12.31a3.29,3.29,0,0,0,.9-.3c.14,0,.49,0,.5-.24s.79.14,1,.14l.16-.09c.41-.23.47-.1.59.22l.1.25c.26-.31.6-.47.77-.38a2.8,2.8,0,0,0,1.26.06l.26-.16.23-.14a5.94,5.94,0,0,1,.76.13l.1.08c.17.14.28.34.45.48l0,0a.37.37,0,0,0,.27-.35c0-.13.49-.35.86-.42l.32.22.07.06a1.14,1.14,0,0,0,1,0l.22-.1.12-.06c.19,0,.33.1.31.24V3c0,.09.11.15.28.14L80,3.08c.13-.13.18-.31.3-.44l.15-.17a1.61,1.61,0,0,0,.65.08A2.14,2.14,0,0,1,82.44,3l.66-.39a.55.55,0,0,1,.44,0l.28.41a4.19,4.19,0,0,0,.88-.52c.11-.11.53-.33.62-.16s.54.53.76.34l.22,0,.39-.09,1,0,.77-.17c.3-.06,1.39.33,1.5.2l.14-.08.12-.08c.19,0,.26,0,.18.16l0,.1c0,.09.16.16.26.23l.25.16a2.53,2.53,0,0,1,.18-.55,1.6,1.6,0,0,1,1.1-.24l.41.08.08,0c.09.1.13.19.09.18a1.61,1.61,0,0,0-.3.53c-.11.28-1.17.18-1.25.22l0,.06,0,.06a3.9,3.9,0,0,0,1,.65l.61-.26.26-.1c.32-.08.32-.22,0-.31s.06-.94.37-1.07h.38a5.27,5.27,0,0,0,2.09-.13,1.06,1.06,0,0,1,.78.17l.19.13c.08.29.24.38.34.22a1.4,1.4,0,0,1,.92-.53c.3,0,1.26-.07,1.49-.37l.25.2.07.05c.06.06.25.27.41.47l.33-.18.09,0a.49.49,0,0,1,.43.26c0,.12.21.45.28.25l0-.1c0-.07,0-.16,0-.22.13-.22.3-.18.52-.06.53.29.12-.28.38-.28h.16a1.6,1.6,0,0,1,.88.05l.27-.22a.54.54,0,0,1,.35-.07l.59.58c.38-.46.9-.66,1.16-.44s1.43,0,1.63.1,1.11-.22,1.56-.19l.38-.19.06,0a9.08,9.08,0,0,0,.94.26l.64-.1.46-.08c.07.27.29.38.5.24s1,0,1.11,0a6,6,0,0,0,.85-.3l.36.08.41.09a2.26,2.26,0,0,1,1,0,.37.37,0,0,0,.41,0c.13-.1.73-.42.83-.3a2.11,2.11,0,0,0,.66.46,4.15,4.15,0,0,0,1.41-.19,6,6,0,0,1,1.64,0,5.51,5.51,0,0,1,1-.1,4.35,4.35,0,0,0,.82.25l0,0,.31-.24a9.49,9.49,0,0,0,1,.06c.12,0,.64-.1.93-.13s1,0,1-.33l.58.33.1.06a2.74,2.74,0,0,0,.72.06,5,5,0,0,0,1.49-.06,6,6,0,0,1,1.41-.3l.11.07c.24.15.41.36.79.33l.33,0a1.51,1.51,0,0,1,.52-.42h.12l.38,0L133.54,1l.22.34a.69.69,0,0,0,1,.11l1.83-.21.53.05a13.5,13.5,0,0,0,1.44,0c.21,0,.69.28.72.12s.25-.27.43,0,1.45,0,1.89,0a10.58,10.58,0,0,0,1.78-.28l0,0,.73.48A14.45,14.45,0,0,1,146,1.58l0,0a.74.74,0,0,1,.93-.19l.22.1a8.75,8.75,0,0,1,1.39-.33h.81a3.31,3.31,0,0,1,1.1.21c.1.08.41.24.45.16a1,1,0,0,1,.61-.34,4,4,0,0,1,1.3,0v.1l0,.43a12.6,12.6,0,0,0,1.29-.3l.36.2a.86.86,0,0,0,.65,0,1.74,1.74,0,0,1,1-.22l.33,0,.94-.26c.17-.05.68.24,1,.2s1.12-.11,1.27-.11.5-.17.59-.1.76.49,1.31.78l.06-.82A1.11,1.11,0,0,1,162,1l.76.26a11.24,11.24,0,0,1,2-.27h.75c.08.24.8.31,1.6.15l.75,0c.18,0,.15.3-.07.42l-.1,0c-.18,0-.2.09,0,.15s.58.08.58-.11.24-.79.52-.83,1.29.23,1.61.18h.31a3.29,3.29,0,0,1,1,.13l.5.21c.48-.16,1-.38,1.27-.48s.57.41.61.41a1.68,1.68,0,0,0,.45-.21l.22.15c.34.24.54.22.58-.2V1a.47.47,0,0,1,.6.12c.13.17.89.06,1.3,0s1.64-.1,1.82-.07l.08-.2a.59.59,0,0,1,.42,0c.15.13.08.51.46.35l.16-.06c.05-.3.47-.39.93-.2l.43.17A5,5,0,0,0,182.77,1c.29-.23.57-.46.68.11v0l.52.12a2.29,2.29,0,0,0,.84.05l.31-.35a1.6,1.6,0,0,1,.61-.27c.27-.05,1,.17,1.06.12a.72.72,0,0,1,.61,0c.14.11.71.41.85.32s.55-.27.65-.19.44.21.47.09a.26.26,0,0,1,.45-.06H190l.39,0c.12.25.34.31.49.15s.58-.57.62-.48a.39.39,0,0,0,.42.18c.15-.07.64-.19.68-.12l0,.09c.09.25.43.25.46.11.13-.51.47-.49.85-.28l.3.17,1.19-.33.27.26a.76.76,0,0,0,1,.12.34.34,0,0,1,.23.08l.32.31c.12-.12.31-.33.43-.47h.53c.47.05.92.1,1,.09s.41-.11.6-.14.93.36,1.17.23,1-.27,1,0,1.05-.17,1.46-.21,1.5.23,1.52.11.18-.46.27-.35l0,.07,0,.06a1.24,1.24,0,0,0,.67.18c.33,0,1.05.31.88.44s-2.44.17-2.91.25-.43.34-.14.25l.3.11h0a2.52,2.52,0,0,1,.64-.38c.27-.13.65.57.76.61s.26-.24.25-.37l0-.1c.14-.4.11-.32-.2-.41l-.37-.11a4.35,4.35,0,0,0-.75.23l-.06,0-.36.19a2.13,2.13,0,0,1,1.42.18,3,3,0,0,0,1.46.2c.23-.06,1.06.09,1.27,0s.19-.51.12-.6a1,1,0,0,0-.56-.35c-.17,0-.42-.08-.18-.19a5.46,5.46,0,0,0,.95-.53c0-.07.53,0,.6,0s.39.38.54.54a10,10,0,0,0,1.05.59c.07.08.17-.25.14-.38l-.08,0-.3-.12c-.33-.1-.52-.3-.43-.45l0-.06c-.12-.14-.18-.31.07-.24l.42.12c.45.06,1.06.17,1.34.24A5.73,5.73,0,0,0,213.57.2c.17-.06.54-.12.77-.2l.22.08s.11,0,.13,0l.15.14a.36.36,0,0,0,.49.1,1,1,0,0,1,.77,0c.21.1,1-.1,1.31.06l.27.16s-.11.2-.13.3l0,.1c0,.11.14,0,.24-.16s.77-.37.74-.43.06-.23.28-.24a8.43,8.43,0,0,1,1.52.4,6.24,6.24,0,0,0,1.54-.14c.08,0,.26.12.22.18a1.6,1.6,0,0,1-.43.32c-.13.08.21.77.78.85l.22-.43.18-.35c-.33-.45-.29-.87.09-.92L223,.1c.23.16.29.47.69.49a.56.56,0,0,1,0,.07c.07.5.08.49.67.56l.3,0c.4.12.72,0,.72-.2s.14-.77.31-.79l0,0,.23.17c.23.21.23.42,0,.46s-.17.6,0,.62.68-.33.76-.25.37.26.46.24l0,0,.07,0,.34-.25c.13-.08.65.32.75.19s.48-.35.66-.27a2.45,2.45,0,0,0,.92.15c.12-.06.44-.3.48-.16s.26.48.42.47l.1-.05.66-.3,1.27.61a.94.94,0,0,0,.41.13,2.72,2.72,0,0,0,.15-.41c0-.16.62-.05.77,0s.57,0,.59.13.56-.05.74-.18.95-.23,1-.32l.11-.08A.76.76,0,0,1,237,1l.64.54c.06-.46.38-.77.7-.7s.77.78.81.68a1.28,1.28,0,0,1,.19-.37h0a4.43,4.43,0,0,1,.66.54c.05.06-.12.24-.15.37l0,.12a.35.35,0,0,0,.32.28l.06,0c.41-.32.59-.22.68.19v0c.24,0,.44-.11.45-.22s0-.35-.13-.38.08-.39.28-.44.59.47.65.77l0,.26c0,.11-.25.28-.38.28l-.54,0c-.6-.09-1.07,0-1,.15s.91.25,1,.42a2,2,0,0,1,.19.62,1.34,1.34,0,0,1-.31.73l-.18.16c-.21.19-.44.36-.67.54l0,0s-.06-.18,0-.4-.4-.8-.58-.69-.63.5-.52.62l.08.06.11.08c.14.08.18.18.1.24s-.2.27-.11.36,1.9.32,1.77.36-.24.16,0,.15.49.52.58.51.28-.09.25-.15,0-.17.21-.13l.15,0h0c.51.25.74.48.53.49s-.84.19-.84.34a1.63,1.63,0,0,0,.4.63,1.82,1.82,0,0,0,1,.22,1,1,0,0,1,.65-.09c.22.08.73.13.58-.09s.56-1,.85-1.37h.79c.14-.27.27-.38.29-.26s.19.48.29.36a.68.68,0,0,1,.75-.14,2.73,2.73,0,0,0,1.27.46c.25-.07.95-.51,1.47-.37l.47.11s.05-.12.1-.17.23-.23.33-.22l.34,0a3,3,0,0,1-.33.62.77.77,0,0,0,.53.91l.29-.62c.06-.14.41-.23.64-.28a.45.45,0,0,1,.35.19c.07.15.06.3.29.12s.4-.18.53,0,.19.38.13.52a4.38,4.38,0,0,1-.55.69l-.19.23a1.83,1.83,0,0,0,.91.66,6.17,6.17,0,0,0,1.39.18,4.15,4.15,0,0,1,1.51.83c.16.21,1,.33,1.05.39a2.58,2.58,0,0,1,0,.94l.32.36.11.14c.08.18-.08.42-.35.54l-.19.17c-.3.27-.27.29-.5.14l-.1-.07L257,13c-.16.29-.37.37-.47.16s-1-.25-1.23-.21-.94.28-.61.38.94.47.82.65l.25.13.42.2c.29-.32.54-.53.55-.47a.74.74,0,0,0,.43.27c.19,0,0,.56-.34.62l-.16.17-.18.18c-.15.31-.18.61-.06.66s.17.4-.14.68-1,1-.93,1.05.3.24.16.39h-.35a1,1,0,0,0-.57.58l.26.22a3.72,3.72,0,0,1-.44,1.33l-.27.17c-.3.17-.54.42-.55.55s-.37.58-.45.76l-.12.13-.28.29A2.35,2.35,0,0,1,253,23l-.06.28-.1.4c.36,0,.5.19.32.32a3.22,3.22,0,0,1-1.24.51l-.32,0-.46,0a4.2,4.2,0,0,1-.86.55l0,0c-.27-.4-.55.18-.86,0a3.28,3.28,0,0,0-.93-.31h0a.51.51,0,0,1-.7.22c-.26-.14-1,.22-1.05.23l0,0c-.21-.2-.53,0-.67-.08l-.41-.21a1.75,1.75,0,0,1-1.29,0l-.37.28-.06.05c-.16,0-.76-.19-1.33-.36l-.53.33-.09.06a2.52,2.52,0,0,0-.66,0,4.29,4.29,0,0,1-1-.23,2,2,0,0,0-.87.13,13.51,13.51,0,0,1-1.45,0l-.35,0a.87.87,0,0,1-.5-.07l-.25-.19c-.24.1-.75.27-1.13.38l-.35.11c-.1,0-.16.13-.23.2l-.2.18c-.09-.19-.27-.31-.39-.26a1.23,1.23,0,0,0-.48.88l0,.36v.06a7.13,7.13,0,0,0-1.54.12l.1-.07.65-.49c0,.43.13.75.31.71s.19-.51.19-.69a1.77,1.77,0,0,0-.39-.72c-.08-.07-.54.23-.73.39s.89.92,1.72,1.14l.23-.19.27-.21a1,1,0,0,1,1-.46c.33.1,1.14.46,1.12.2l.06-.15,0-.06c.23,0,.39,0,.36.08s0,.26.13.28.48.14.45.23h0l-.37,0c-.33.22-.38.46-.12.53l.09-.07.38-.26a6,6,0,0,1,1.22.13c.22.07.76-.29.86-.32l.06,0,.23.11a1.38,1.38,0,0,0,.87.09l.24.17c.08.06.3,0,.45,0H242a.2.2,0,0,1,.19.22v.25a1.69,1.69,0,0,1-.35.75H241c-.61,0-.53.33.16.72l.74-.05.31,0a1.43,1.43,0,0,1,.65-.41l.08.06.23.17a1.65,1.65,0,0,0,.3.88l.2,0a.29.29,0,0,0,.14-.26v-.07a1.14,1.14,0,0,0-.63,0l-.28-.07c-.17-.05-.37.17-.75.07l-.5-.13a3.6,3.6,0,0,0-1.63.72l.3.27.08.07a2.23,2.23,0,0,0,1.13-.55l.63.22,1,.56.46-.45c-.24-.34-.32-.76-.18-.94s.67-.53,1-.25l.14.22c.05.08,0,.25-.09.35l-.1.14c-.12.5.05.87.38.82s.85.66.7.76-.58.51-.31.45,2.94-.37,3.35-.53-.14-.26-.69-.19l-.46.19-.14.06c-.17,0-.29,0-.27-.06a.32.32,0,0,0-.2-.33l0,0a6.8,6.8,0,0,0-.5.57l-.13.14a1.66,1.66,0,0,0,.76.5c.27.08.82-.48.89-.55s.33,0,.38.37l.51-.21.28-.12a16.43,16.43,0,0,1-2.07-.36c-.51-.14-.47-.59-.34-.72a4.72,4.72,0,0,1,.53-.46v0c.07.19.07.5.21.56l.41.15a1.33,1.33,0,0,1,.2-.68,9.1,9.1,0,0,1,2.1.27l.76-.35.27-.13a.55.55,0,0,0,.11.53c.1.08.51.23.54.08a.61.61,0,0,1,.69-.32c.32.09.05.88.21,1a2.76,2.76,0,0,0,1.87-.09l.69-.21.08,0c.22.22.46.37.53.32a1.57,1.57,0,0,0,.26-.25h0l-.27-.16a2.18,2.18,0,0,0-.87-.27h-.16a.87.87,0,0,1-.28,0c-.61-.3-.53.07-.55.36V31c-.06.07-.12,0-.13-.16s-.6-.23-.68-.33l0-.09c0-.06.21-.17.26-.15.35.11.65-.35,1,0l.05,0c.39-.23.76-.29.82-.14l.13.1.07,0,.68-.34c.17-.09.77-.26.84-.11s.33.56.38.54l.09,0,.51-.14a3.58,3.58,0,0,1,1.59-.09v0c0,.38.24.81-.23,1.13,0,0,0,.22.11.27a.4.4,0,0,0,.34,0A5.07,5.07,0,0,0,260,31l.07-.1c.11-.1.23-.08.27.05a1.57,1.57,0,0,0,.42.53c.12,0,.53,0,.63,0s.42.23.46.16.21-.2.31-.08a.77.77,0,0,0,.94,0l.3-.19h0c.19.17.27.38.18.46s-.28.37-.13.39.58.18.52.3-.08.54.12.57.4.29-.11.53l-.41.22a.76.76,0,0,0-.34.32.42.42,0,0,0,0,.41.65.65,0,0,0,.48.08l.29-.08a1.2,1.2,0,0,1,.16-.64l.11,0c.33-.13,1.29.23,1.33.51v.08l-.67.41a4.22,4.22,0,0,0-.7.65c0,.06-.18,0-.34-.16l-.16,0-.15,0c-.26.17-.35.38-.21.46a2.19,2.19,0,0,1,.59,1.31l0,.53,0,.6c-.56.35-1.05.54-1.07.43s-.21-.33-.35-.24-.06.61-.2.63-.48.25-.3.44h.14a4.88,4.88,0,0,0,.7-.19c.18,0,.5-.1.5.19s-.06.41-.18.45l-.42.13a.58.58,0,0,1-.72-.65l-.66.11-.51.09c.21.4.19.73-.05.74s-.92,0-.94-.16-.22-.33-.38-.16-.65.56-.68.43-.22-.48-.34-.36a2.42,2.42,0,0,1-1.39.39l-.36.18-.39.19a13.32,13.32,0,0,0-1.41,0l-.38,0h-.12a2.89,2.89,0,0,1-1,0,16.93,16.93,0,0,0-1.71.14,4.14,4.14,0,0,0-.81-.13A4,4,0,0,1,250,40.7c-.18-.11-.95.38-1.32.51l-.06-.51,0-.17-.77.3c-.17.07-.48.29-.58.15s-.9,0-1.12.07a4.45,4.45,0,0,1-1-.13c-.13-.05-.52.22-.61.28s-.49-.05-.6-.09a2.65,2.65,0,0,0-1.05.2c-.35.15-1.62-.27-2-.29a7.56,7.56,0,0,0-1.53.47c-.17,0-.8,0-1.05.18l-.46-.29c-.19-.13-.67.08-1,.08s-.59-.12-.88-.13a2.6,2.6,0,0,0-.66.14l-.49.13c0-.31,0-.39,0-.2s-.8,0-1.09.07l-.27,0-1.09-.09c-1.2-.06-2.52-.09-3-.06a12.92,12.92,0,0,0-1.66.32,6.06,6.06,0,0,1-.9.15l-.11-.1c-.35-.34-.74,0-1-.09l-.4-.18a4.44,4.44,0,0,1-1.17,0c-.22,0-1.14.29-1.65.36l-.49-.24-.28-.14a3.14,3.14,0,0,1-1.16.08c-.16-.06-.56.12-.66,0s-.51-.31-.72-.21a6,6,0,0,1-1.17.39,3.55,3.55,0,0,1-.93-.16,8,8,0,0,0-1.65.31c-.56.12-2.12-.18-2.24-.08s-.63-.15-.75-.17-.47.06-.52,0-.24-.22-.29-.14a.62.62,0,0,1-.65.08c-.25-.13-1.12.22-1.33.25l-.13-.07a1.2,1.2,0,0,0-1.3,0c-.39.22-.81-.31-1.06-.16a1.28,1.28,0,0,1-1.11.16.74.74,0,0,0-.6,0c-.15,0-.51-.15-.53-.12-.2.32-.44-.13-.59,0s-.23.09-.4,0l-.33-.19-2,.26c-.68.09-3,0-3.3.07H198l-.77,0a5.79,5.79,0,0,0-1.88.16,5.48,5.48,0,0,1-1.61-.15l-.38,0c-.45,0-.91,0-1.36,0h-.29c-.1-.18-.23-.33-.28-.33a1.7,1.7,0,0,0-.43.15c-.14.08-.57.3-.71.22s-1.11.14-1.79.12-2.65-.19-2.9-.23-1,.17-1.18.05-1,.16-1.27.18-1.12.08-1.42.12-1.18-.23-1.4-.17a4,4,0,0,1-1.24,0c-.22-.06-1.25.06-1.7,0l-.43-.1-.34-.09a11.58,11.58,0,0,1-2.32.26c-.72,0-3.06.06-3.6.15l-.16-.57v-.05c-.37,0-.63.08-.58.16a.23.23,0,0,1-.23.3,7.6,7.6,0,0,0-1.44.2l-.38-.17-.21-.1a1,1,0,0,0-.47-.27l0,0c-.1.09-.19.3-.24.29l-1.08-.16a4.8,4.8,0,0,1-2.18.11c0-.14-.28-.46-.53-.37l-.21,0c-.45-.05-.27.33-.46.4a4.22,4.22,0,0,1-.64.06c-.25,0-.48.15-.72.18H161l-.73-.19a2.73,2.73,0,0,0-1,.13c-.14.06-.81-.07-1,0s-1.29.1-1.9.25l-.54-.36a.82.82,0,0,0-.65,0l-.45.29a10,10,0,0,0-1.43-.33l0,.06c-.28.48-.66-.14-1,.09l-.31.22a6,6,0,0,0-1.46-.47l-.43.26-.31.19a1.16,1.16,0,0,0-1-.41l-.1.13c-.23.32-.41-.14-.59,0L148,42a2.63,2.63,0,0,1-.86-.06,20.4,20.4,0,0,0-2.7.18l0,0a.74.74,0,0,0-.93-.13c-.36.28-.44-.23-.79-.11l-.26.09a5.29,5.29,0,0,0-1.88-.1l-.6,0c-.34,0-.92.07-1-.07l-.25-.37a1.75,1.75,0,0,1-.66.28c-.09,0-.49,0-.78,0H137a3.18,3.18,0,0,0-.7.19h0a1.43,1.43,0,0,0-.35-.38c-.12-.08-.39.24-.48.41l-.27,0-.33,0c-.36,0-1,0-1.41.09l-.38,0-.39-.05c-.44,0-.82-.07-.85-.19a1.38,1.38,0,0,0-.13-.43.39.39,0,0,0-.13.22c0,.12-.27.45-.46.42l-.07-.07c-.36-.38-.35-.38-.85,0l-.06,0a6.38,6.38,0,0,1-1,.14c-.51,0-1.84-.39-2-.3s-.46-.1-.31-.21.41-.46.14-.4a3.13,3.13,0,0,0-1,.63h-.09c-.2,0-.4-.13-.59-.13s-.36.12-.54.14a1.41,1.41,0,0,1-.65,0l-.63-.26c-.67.15-1.41.28-1.65.3l-.19-.06a3.38,3.38,0,0,0-1.32-.15l-.59.2c-.54-.22-1-.3-1.13-.17a10.47,10.47,0,0,1-2.16,0h-1.26a9.26,9.26,0,0,0-2,.17l-.49-.15a11.14,11.14,0,0,1-1.19-.37.8.8,0,0,0-.44,0c-.08.44-.29.5-.67.18l0,0a7.82,7.82,0,0,0-1,.21l-.4-.09a1.46,1.46,0,0,0-1.32.06c-.11.07-.41,0-.62-.06l-.16,0a.94.94,0,0,0-.65.08,4,4,0,0,1-1.28-.1,9.09,9.09,0,0,0-1.75.06l-.37-.34s-.11.08-.18.09l-1.12.18c-.6-.13-1.18-.25-1.28-.25s-.88.05-1.62.05l-.68.09h-.06c-.13-.23-.27-.3-.32-.15a6.72,6.72,0,0,1-1.85.35L95,41,95,41a3.29,3.29,0,0,1-1,.14L93.64,41c-.29-.09-.52.46-.91.08-.06-.06-.29,0-.44,0a1.6,1.6,0,0,1-.29,0l-.16,0a2.46,2.46,0,0,0-.93.11L90.7,41c-.29-.36-.51.23-.87,0s-.16-.56-.38-.76a.79.79,0,0,0-.61,0l-.33.14c-.31.23-.5.43-.42.46s0,.15-.34.22l-.34,0a2.61,2.61,0,0,0-.6-.14l-.62,0c-.37-.36-.67-.55-.67-.41s-.3.66-.66.65-1.18-.44-1.23-.37l0,0-.09.09a1.67,1.67,0,0,1-.88.11A7,7,0,0,1,81,40.61c-.13-.09-.5-.11-.52,0s-.55.15-.58.15a1.76,1.76,0,0,1-.15-.64l-.57.34a3.68,3.68,0,0,1-.92.3l-.17,0c-.26,0-.48-.19-.48-.39v-.17c0-.19,0-.39-.32-.35s-.18.27-.22.43l0,.06c-.07.13-.19.15-.27,0a.45.45,0,0,0-.66,0l-.14.16a.42.42,0,0,1-.29.14h-.09a1.94,1.94,0,0,1-.25-.5c-.06-.17-.59-.25-.47-.2s0,.49-.57.85l-.49-.45-.19-.17a6.16,6.16,0,0,0-.68.34c-.19.1-1.14-.25-1.23-.29h-.15c-.08,0-.12.11-.08.16s-.31.29-.9.39l-.31-.15-.49-.24c-.47.09-.81.07-.76,0a1.55,1.55,0,0,0-.79-1l-.74.4-.45.24c-.74-.22-1.18-.38-1-.36l0,0,.21-.45c.46.09.89.19,1,.21s.12-.36-.37-.32L66.64,39l-.59-.35c-.18.35-.34.57-.36.5a.59.59,0,0,0-.33-.33c-.15,0-.48.25-.51.32a3.28,3.28,0,0,1-.61.54c-.23.18-.58,1-.62.85s-.25-.58-.4-.57a3.69,3.69,0,0,1-.78-.1c-.12,0-.39.07-.24.14a2.08,2.08,0,0,1,.56.41l0,.07a.23.23,0,0,1-.17.08l-.28-.07c-.36-.12-.65-.32-.65-.46s-.13-.5-.3-.44-.29.56-.35.71-.68.07-.74,0a.64.64,0,0,1,0-.7c.18-.32.26-1,0-.66s-1.11,1.05-1.28.93-.57.27-.65.4-.75.18-.86,0,.77-.47,1-.55a6.06,6.06,0,0,0,1-.41,1.08,1.08,0,0,0,.07-.47H59.4c-.11,0-.3,0-.35,0l-.19.19c-.17.22-.36.4-.43.39a.42.42,0,0,1-.26-.25,2.08,2.08,0,0,0-.37-.61c-.09-.1-.39-.36-.46-.32a4.06,4.06,0,0,0-.63.51h.23l.52,0a3.78,3.78,0,0,1,.4.61.47.47,0,0,1-.38.25l-.2,0-.17,0a2.88,2.88,0,0,0-.44.16c-.08,0-.35-.12-.46,0s-.42.13-.52,0-.61-.54-.89-.34l-.19.13-.2.14a8.69,8.69,0,0,0-.85-.46l-.19-.24-.18-.24-.83.41-.09.1-.16.2a.75.75,0,0,1-.83.3c-.3-.1-.82-.5-1-.55s-.66-.09-.58.13l-.07.06c-.13.12-.37.15-.53.26l0,0c.08.15.07.3,0,.34s-.33-.1-.41-.25a1.92,1.92,0,0,0-1.38-.48l0,.62c0,.18-.63.26-.74.09s-.08-.33.24-.37c.1,0,.27-.23.23-.29l-.13-.25a1,1,0,0,1-.83.23c-.34,0-1.25.27-1.37.22l-.12,0a.88.88,0,0,0-.45,0l-.42.23-.94-.28a6.82,6.82,0,0,0-.86.05l-.29-.19-.09-.07a.3.3,0,0,0-.39.16,1.19,1.19,0,0,1-.8.6,8.4,8.4,0,0,0-1.37,0l0,.06,0,.07c-.07.07-.15.07-.18,0l0-.06L38.54,40c-.12-.15-.51-.11-.86.08l0,0-.33-.28a.91.91,0,0,1-.66.24c-.13,0-.75,0-1,0a4.06,4.06,0,0,0-1.3.26c-.21.05-.89-.15-1.17,0l-.34-.28-.26-.21a5.43,5.43,0,0,1-1.39.26l-.3.15-.31.15a4.22,4.22,0,0,1-.93-.52l-.26.3c-.22.26-.43-.13-.64-.13s-.59.25-.68.18a1.72,1.72,0,0,0-1.13-.19c-.46,0-1-.17-1.39.2l0,0a3.78,3.78,0,0,1-.59-.17,3.49,3.49,0,0,0-1.5,0l-.36-.05a18.1,18.1,0,0,1-2.18-.5c-.15,0-.22-.28-.34-.41a.47.47,0,0,0-.28-.17c-.17,0-.36.13-.51.1l-.1,0a.86.86,0,0,0-.57-.46,4.26,4.26,0,0,0-1.2.06l-.18-.11a2.75,2.75,0,0,0-1.57-.3c-.06,0-.21-.22-.18-.26s.46-.3-.11-.36c-.26,0-.23-.26,0-.41l.1-.07a.36.36,0,0,0,0-.4c-.08-.14.3-.32.45-.22s.68-.06.83,0l.07.13c.06.08,0,.22,0,.32a.5.5,0,0,0,.26.17l.06,0a2.38,2.38,0,0,0,.45-.43c.16-.18.52-.85.43-1s-.9,0-1.13-.08l0-.1-.08-.28c-.18-.26-.4-.36-.5-.23s-.21.7-.44.49-1.23-.5-1.38-.63.27-.55.46-.42.79.43.88.37a2.82,2.82,0,0,0,.42-.61l.36.2c.1.07.39.08.43,0s.11-.28-.19-.38l-.23-.07c-.2-.28-.19-.6,0-.7l.12-.14.07-.08A.64.64,0,0,0,17,32.6a5,5,0,0,0-1.16-.42l-.1.35-.17.55c-.49-.14-.76-.29-.61-.35s.41-.21.35-.25L14.72,32l-.19-.15-.18-.13a1.37,1.37,0,0,1-.84-.11l-.24,0a4.25,4.25,0,0,0-.8,0,10.1,10.1,0,0,0-1.35,0c-.43.07-.75-.2-1.18-.11a1.32,1.32,0,0,1-.74-.22l-.3-.15A11.45,11.45,0,0,1,7.44,31C7,30.9,5.5,30.27,5,30.12L4.5,30,4.17,30a7.4,7.4,0,0,1-1.09-.17l-.2-.1-.83-.42c.14-.45.32-1,.41-1.21l-.61.09c-.3.05-.46-.09-.4-.33l.05-.17a.58.58,0,0,0-.08-.5c-.09-.09-.31-.39-.19-.45A3.88,3.88,0,0,0,2,26.18l-.34-.11c-.28-.08-.4-.2-.26-.36l.24-.28a3.63,3.63,0,0,1-.83-1.51l-.51-.54-.12-.13c.21-.37.25-.68.11-.7s-.36-.19-.18-.34,0-.69.14-.72.49-.35.39-.62l-.09-.24c-.1-.26-.29-.54-.25-.79a1.38,1.38,0,0,1,.53-.69c.16-.12.59-.06.67-.18l.18-.26.73.07c.14,0,.83-.6,1-.55A11.08,11.08,0,0,0,4.54,18l.28-.09c.21-.06.59.19.76.1a.62.62,0,0,1,.69,0A1.1,1.1,0,0,0,7,18l.59-.25c-.06.29.35.2.92-.22l.83.13.14,0a.69.69,0,0,1,.52-.09,1.87,1.87,0,0,0,1.27-.33l.67.31c.22.1.76-.19.88-.08l.38.32c.29-.18.8-.46,1.14-.62l.29-.06a2.91,2.91,0,0,1,1,0,2.22,2.22,0,0,0,1.48-.07l.4-.21a2.11,2.11,0,0,1,1.06.12l.07.07.12.14c.15.16.41.09.57-.15s1.33,0,1.71,0,1.49-.44,1.78-.46h.27a3.2,3.2,0,0,0,1.21-.1,1,1,0,0,1,.34-.11l.21,0a6.47,6.47,0,0,1,.82-.28l.23.05.19,0c.17.19.3.13.29-.15l.52.07a1.11,1.11,0,0,0,1-.14s.17,0,.17,0c0,.18,0,.41.35.32.14,0,.17-.32.32-.38a3.69,3.69,0,0,1,1.08-.25h.43a3.54,3.54,0,0,0,1.22,0,4.27,4.27,0,0,1,1.05-.14,2.72,2.72,0,0,0,.82,0c.07-.06.36-.22.38-.14a.45.45,0,0,0,.47.16,2,2,0,0,1,1-.13c.12.09.6.32.72.26a3,3,0,0,0,.5-.51c.14-.14.77-.07,1-.13h.52a6.75,6.75,0,0,1,1.25.11l.34,0a.45.45,0,0,0,.28-.05l.73-.38c.44.28.82.41.84.3s.24-.42.44-.34l.15,0,.14,0a1.37,1.37,0,0,0,.7-.37l.35,0h.14a.41.41,0,0,0,0-.58l-.18,0c-.31-.07-.3.15-.36.32s-.31.08-.47.11c-.36.05-.81.23-1,.12A2.92,2.92,0,0,0,40,14.18c-.41,0-.81,0-1.22,0s-.82,0-1.22,0c-.57.05-.77-.33-1.06-.57l-.34-.28a4.48,4.48,0,0,0-1,.11,4.42,4.42,0,0,1-.66.1,2.52,2.52,0,0,1-.79-.36c-.15-.08-.75-.28-.86-.16l-.07.12c-.12.19-.1.2.28.21a.49.49,0,0,1,.19,0c0,.1,0,.27-.07.28-.26,0-.65.24-.71-.17l0-.2c.07-.26.14-.52.16-.58s0-.21-.1-.18l-.09,0-.38.07-.48.08a.47.47,0,0,1-.22.72,2.17,2.17,0,0,1-1.29,0l0-.09.05-.16c.07-.16,0-.29-.09-.28a.54.54,0,0,1-.45-.56l-.1,0-.93-.29c.18-.63.56-1.09.85-1l.2.07c.19.06.37.16.57.21a.59.59,0,0,0,.36-.08l.23-.14a1.76,1.76,0,0,0,.88-.32v-.28a1.93,1.93,0,0,0-.84-.27l-.16.09c-.13.07,0,.41-.34.33L30,10.58c-.23-.18-.5-.19-.6,0s-.67,0-.65-.08,0-.24-.1-.24-.51.08-.53.18-.17.39-.26.38l0,0c-.05-.09,0-.22-.11-.29l-.27-.31c-.47,0-.9,0-1,0s-.18-.39.17-.82l.5.24.38.18c.42,0,.77-.17.79-.36s-.07-.73-.2-.73-.5.09-.37.19l0,.1,0,.08c0,.15-.26.22-.5.16s-.65-.3-.37-.4v-.1c0-.13-.16-.3-.3-.42s-.25.13-.38.12a.68.68,0,0,1-.36-.2s.12-.15.19-.22l0,0,.93.15c.45.07,1.66-.28,1.78-.21H29a1.17,1.17,0,0,0,.38-.17.16.16,0,0,0,0-.15l0-.06c-.07-.06,0-.14.09-.19a1.12,1.12,0,0,1,.64-.07c.09.07.43.21.52.14a.5.5,0,0,1,.61.08,5.83,5.83,0,0,0,.56.73,2.08,2.08,0,0,0-.07-.73l0-.36V7.07a.51.51,0,0,1,.49,0l0,.08.11.22c.11.3.34.23.52-.16L33,7l.28-.22c.14-.29.31-.46.36-.4a1.31,1.31,0,0,0,.68.3l.23.1.21.09c.34,0,.61,0,.61-.16s.1-.41.21-.35l.12,0a2.5,2.5,0,0,0,.78.27c.13,0,.27-.38.41-.39h.27a2.26,2.26,0,0,1,.73.09A.36.36,0,0,0,38.36,6l0-.2.05-.23c.12-.24.68-.29,1.25-.1L40.36,5c.39-.29.72-.82,1.41-.31l0,0c.29-.23.67-.29.83-.14l.17.1.09.05.62,0a7.59,7.59,0,0,0,1.09-.31,13.33,13.33,0,0,1,1.47-.11c.31,0,1-.37,1.21-.24s.56.56.53.66.06.46.31.45l.25,0,.4,0a7.53,7.53,0,0,0,.74-.8c.15-.21.68-.73.8-.65l.09,0,.47.22a1.34,1.34,0,0,1-.42.65l-.07.12,0,.1c.06.15.18.25.26.23a7.64,7.64,0,0,0,.9-.58L52,4.7l.14.06c.14.07.36-.06.5-.3s.7-.81.89-.69l.19,0,.33.08a3.45,3.45,0,0,0,.82.38c.16,0,.14.51.21.58s.34.1.39.2.44,0,.49-.21.71-.11.85-.08A4.54,4.54,0,0,1,58,4.67l.46,0,.44,0c.46.11.93.06,1-.11S59.63,3.94,59.68,3.82Zm190,4.81a.51.51,0,0,0-.32-.79l-.32,0-.47-.07c-.53,0-.81,0-.62.19S249.47,8.92,249.68,8.63Zm4.79,2.88c.08-.07,0-.46-.17-.87h-1.39c-.31.4-.38.91-.15,1.13l.12,0,.3-.06c.3-.17.61-.25.7-.18A.81.81,0,0,0,254.47,11.51Zm3.32,24.21c.12,0,.39-.19.6-.48s-.44-1-.34-1.05v0l0-.23c-.3-.09-.6-.09-.65,0s.14.41.21.55,0,.53.09.69S257.66,35.69,257.79,35.72ZM37.3,10.38c0,.17-.17.23-.35.14s-.06.34.38.32l.39,0,.73.07c.27-.35.29-.59.06-.54s-.88-.09-.91-.21a1.61,1.61,0,0,0-.18-.39A2.55,2.55,0,0,0,37.3,10.38Zm9.5-5c.17-.3-.1-.53-.6-.51l-.3-.31,0,0a1,1,0,0,0-.42.44c0,.14.58.42.76.46v0c0,.34.14.42.39.13Zm191.54.39c0-.2-.08-.26-.15-.13a.51.51,0,0,1-.59.19c-.2-.12-.88-.18-.81-.11s.12.24,0,.31-.18.28.34.15l.23.09.33.12A.73.73,0,0,0,238.34,5.77ZM258,31.31c.18.1.36.05.41-.11s-.3-.67-.37-.81l-.23.19-.42.34a4.79,4.79,0,0,0-.88-.13l0,0a.18.18,0,0,0,0,.2c.23.14.49.25.73.39l.07,0C257.41,31.51,257.87,31.21,258,31.31ZM41,5.8c.34.08.61.1.61,0a1.63,1.63,0,0,1,.13-.49c.07-.13-.14-.26-.35-.11L41.06,5c-.32-.18-.42.22-.64.34s-.18.29,0,.44.24.26.49.06Zm191.35,22c-.12.1,0,.14.26.1s1,.39,1.26.38.37-.6.06-.63A5.65,5.65,0,0,0,232.37,27.75Zm-65.7,12.51c-.15-.07-.28,0-.28.14s-.07.51-.16.5-.38,0-.38.13a1.88,1.88,0,0,0,.06.37,10.72,10.72,0,0,0,1.32-.18l0-.25,0-.16C167.17,40.63,166.82,40.33,166.67,40.26ZM220.23,1.69a.54.54,0,0,0,.68-.17l.06-.18a.59.59,0,0,0-.14-.44.37.37,0,0,0-.55-.09l-.19.12C219.8,1.05,220.07,1.55,220.23,1.69Zm-5.59,0c.37-.08.62-.27.56-.42a1.13,1.13,0,0,0-.84-.3C214.2,1.06,214.28,1.8,214.64,1.72Zm46.47,31.12c.08-.24-.14-.35-.49-.23l-.28.13c-.22.11-.42.26-.07.47l.1.06C260.41,33.49,261,33.09,261.11,32.84ZM65.68,3.87c-.32.14-.17.35.33.47l.35.11c.34.11.48-.1.64-.25s.06-.2,0-.29a3.19,3.19,0,0,0-1.1-.15ZM30.3,8.93a.41.41,0,0,0-.36-.28,2,2,0,0,0-.73.23,1.65,1.65,0,0,0-.54.78l0,.05.05,0a4.77,4.77,0,0,0,1.07-.52L30.27,9Zm33-4.39c0,.15.14.19.37.11a3.23,3.23,0,0,0,.89-.55l-.15-.16c-.11-.12,0-.39-.36-.33l-.31.05A2.66,2.66,0,0,0,63.3,4.54Zm95.26-2.2c.29.14.31.14.06,0s-.84-.62-.92-.46a.74.74,0,0,0,.43.82l.08-.07ZM82.79,4.08c0,.14.18.09.37-.1s.25-.79,0-.74a3.58,3.58,0,0,0-.87.29c0,.05,0,.18.11.17S82.77,4,82.79,4.08ZM118.3,2.82c-.63,0-1,.14-.72.41l.37-.07a6.83,6.83,0,0,0,1-.31s0-.18,0-.27a.29.29,0,0,0-.22-.07ZM26.53,37.16a1.37,1.37,0,0,0,.14-.8l-.36.08c-.12,0-.27.3-.34.05s-.18-.41-.49-.23l-.05,0A2.37,2.37,0,0,0,26,37l.23.08Zm201.7-10.85c.08-.14-.13-.29-.47-.32l-.2.08-.22.1a.71.71,0,0,0-.1.7h.13l.17,0A2.26,2.26,0,0,0,228.23,26.31ZM193.32,1.62c.14-.21.05-.29-.2-.18s-.9,0-1,.11v.07c0,.16-.14.37.2.45l.18,0C192.7,2.19,193.18,1.82,193.32,1.62ZM233,6.11c-.31-.24-.33-.3,0-.13a3.94,3.94,0,0,0,1.31.37c.08-.06,0-.37-.49-.53l-.24.09ZM199.76,2c.25.14.45.19.44.1a1.5,1.5,0,0,1,.09-.43c0-.08-.08-.34-.38-.35S199.5,1.9,199.76,2Zm-37.53.07c-.25,0-.2.22.12.48l.33.1.1,0C163.1,2.39,162.48,2.11,162.23,2.11ZM64.49,37.53c-.28,0-.45.14-.36.31s.51.49.79.4S64.77,37.53,64.49,37.53ZM235,30.05s-.05.17-.22.29-.2.46.05.36l.22-.08.25-.1c.35-.08.47-.29.27-.45l-.18-.14c-.06-.05-.13-.13-.19-.12h-.12A.16.16,0,0,0,235,30.05Zm-4-3.36c.34,0,.46-.15.25-.28s-1,0-1.25,0S230.71,26.71,231.06,26.69ZM151.34,2.48c.35.28.74.11.85-.39l-.6-.23-.13-.05c-.3.18-.49.36-.43.41l0,0ZM53.83,9.26a.19.19,0,0,0,0,.33,5.14,5.14,0,0,0,.93.37L55,10a.31.31,0,0,0,.18-.12c0-.06,0-.18,0-.21l-.3-.19C54.5,9.28,54,9.16,53.83,9.26ZM35.42,10.77a1.18,1.18,0,0,0-1.4-.24C34.59,11.24,34.6,11.24,35.42,10.77Z"/><path class="cls-1" d="M260.47,30.54c-.25-.13-.27-.27,0-.31a11.15,11.15,0,0,0,1.4-.66l.11.51,0,.08a2.33,2.33,0,0,0,.82-.05,1.53,1.53,0,0,1,1.1.14l-.1.33c0,.05-.22.08-.34.09s-.14-.09-.13-.13.36-.16.08-.29l-.08,0a6.33,6.33,0,0,0-.81.51l-.22.23-.29.29A10.21,10.21,0,0,1,260.47,30.54Z"/><path class="cls-1" d="M59.51,3.49a.27.27,0,0,1,.17.33,1.26,1.26,0,0,1-.75.5c-.31,0-1.1-.13-1.3-.13s-.64.33-.74.39-.14-.31.13-.83l.6-.27.11,0a5.12,5.12,0,0,1,.63,0A5.79,5.79,0,0,1,59.51,3.49Z"/><path class="cls-1" d="M242.81,28.33c-.35-.16-.65-.36-.65-.44s.08-.34.18-.39.41-.25.5-.31a2.25,2.25,0,0,1,.74.17c.19.06.62.12.58.57l-.55-.15c-.16-.05-.3-.13-.45-.18s-.15.07-.18.13,0,.18,0,.2.33.08.44.17a.24.24,0,0,1,0,.28.44.44,0,0,1-.33.09Z"/><path class="cls-1" d="M36,5.39c.6,0,1.14.18,1.21.44l-.45,0h-.16a5.83,5.83,0,0,0-.75-.15c-.25,0-.77.53-.91.7s-.39-.43-.48-.48-.28-.24-.12-.3.67-.31.88-.38l.3.08Z"/><path class="cls-1" d="M227.25.36a1.06,1.06,0,0,1,1-.1l.08-.06c.29-.23.34.1.51.1s.53,0,.8,0c0,0,.1.13.08.18l0,.07a.36.36,0,0,1-.36,0c-.11-.08-.6.13-.77.19l0,0c-.4-.41-.67-.14-1,.1-.05,0-.24.05-.27,0s-.2-.23-.16-.29Z"/><path class="cls-1" d="M245.82,27.51c.23.11.24.33,0,.49s-.59.58-.68.44a1.48,1.48,0,0,1,.11-1.12l.36.12Z"/><path class="cls-1" d="M28.07,12.35a.61.61,0,0,1-.52.55c-.28,0-.62-.5-.4-.48l.09.07c.17.14.25.11.39,0s.24-.16.05-.32l-.08-.06A.37.37,0,0,1,28,11.8l.12.07c.16.08.37.17.09.38Z"/><path class="cls-1" d="M38.65,4.87c0,.15-.08.26-.19.24l-.06,0c-.18.11-.33.32-.51.34l-.28,0c-.31-.09-.41-.28-.21-.42S38.65,4.72,38.65,4.87Z"/><path class="cls-1" d="M48.23,4.46a.28.28,0,0,1-.32-.26c0-.16.09-.59.2-.58a2.87,2.87,0,0,1,.66.24c.26.12,0,.73-.2.66l-.17,0Z"/><path class="cls-1" d="M67,40.46c.35,0,.23.21-.25.45l-.54-.12-.09,0c0-.17.2-.44.56-.59l.06,0Z"/></g></g></svg>